# xmcd CD database file generated by OrangeCD 6.4
#
# Track frame offsets:
#	150
#	20282
#	42001
#	56808
#	76497
#	98622
#	119450
#	140312
#	160268
#
# Disc length: 2665 seconds
#
# Revision: 0
# Processed by: cddbd v1.5.2PL0 Copyright (c) Steve Scherf et al.
# Submitted via: OrangeCD 6.4
#
DISCID=6a0a6709
DTITLE=Phosphorescent - Here's To Taking It Easy
DYEAR=2010
DGENRE=
TTITLE0=It's Hard to Be Humble (When You're From Alabama)
TTITLE1=Nothing Was Stolen (Love Me Foolishly)
TTITLE2=We'll Be Here Soon
TTITLE3=The Mermaid Parade
TTITLE4=I Don't Care If There's Cursing
TTITLE5=Tell Me Baby (Have You Had Enough)
TTITLE6=Hej, Me I'm Light
TTITLE7=Heaven, Sittin' Down
TTITLE8=Los Angeles
EXTD=
EXTT0=
EXTT1=
EXTT2=
EXTT3=
EXTT4=
EXTT5=
EXTT6=
EXTT7=
EXTT8=
PLAYORDER=
